<svg width="512" height="256" viewBox="0 0 512 256" fill="none" xmlns="http://www.w3.org/2000/svg">
<g clip-path="url(#clip0)">
<path d="M231.528 127.144L4.904 240.456C-1.392 243.604 -1.392 248.704 4.904 251.852C8.048 253.428 12.176 254.212 16.296 254.212C20.424 254.212 24.544 253.428 27.688 251.852L256.016 137.688L484.344 251.852C487.496 253.428 491.616 254.212 495.736 254.212C499.856 254.212 503.984 253.428 507.128 251.852C513.424 248.704 513.424 243.604 507.128 240.456L280.512 127.144L507.28 13.752C513.576 10.604 513.576 5.50405 507.28 2.35605C500.984 -0.787953 490.784 -0.787953 484.496 2.35605L256.024 116.6L27.528 2.36005C21.232 -0.783953 11.04 -0.783953 4.744 2.36005C-1.552 5.50805 -1.552 10.608 4.744 13.756L231.528 127.144Z" fill="white"/>
</g>
<defs>
<clipPath id="clip0">
<rect width="512" height="256" fill="white"/>
</clipPath>
</defs>
</svg>
