<svg width="32" height="32" viewBox="0 0 32 32" fill="none" xmlns="http://www.w3.org/2000/svg">
<path fill-rule="evenodd" clip-rule="evenodd" d="M29.9763 6.22729L30.7042 6.45458C31.705 6.77273 32.2508 7.81821 31.8869 8.81817L28.4751 19.6818L28.4296 19.8182L27.1559 21.5455V27.6819C27.1559 27.9546 26.974 28.1364 26.701 28.1364H25.0179V31.5455C25.0179 31.8182 24.836 32 24.563 32H0.454875C0.181974 32 0 31.8182 0 31.5455V2.31813C0 2.04544 0.181914 1.86361 0.454875 1.86361H4.13802V0.454522C4.13802 0.181833 4.31993 0 4.59289 0H19.1952C19.2862 0 19.4227 0.0454582 19.5136 0.136375L26.974 7.36363C27.065 7.45454 27.156 7.59092 27.156 7.72729V7.77269V8.68179L27.5653 7.45454C27.8383 6.68181 28.5661 6.13637 29.385 6.13637C29.6124 6.13637 29.7943 6.18183 29.9763 6.22729ZM25.6092 7.27277L19.6501 1.54546V7.27277H25.6092ZM24.1081 31.091H0.909751V2.77271H4.13796V27.6819C4.13796 27.9546 4.31993 28.1364 4.59283 28.1364H24.1081V29.091L24.1081 31.091ZM26.2461 27.2274H26.2916V22.8182L25.0634 24.4546C24.9724 24.6364 24.745 24.6819 24.563 24.6364C24.381 24.591 24.2445 24.4092 24.2445 24.2274L24.1536 18.4546V18.3182L26.2916 11.5909V8.18181H19.1951C18.9222 8.18181 18.7402 8.00004 18.7402 7.72729V0.909104H5.04777V27.2274H26.2461ZM25.1089 22.8182L25.0179 19.0455L27.2924 19.7727L25.1089 22.8182ZM27.7928 18.9546L31.0681 8.54548C31.25 8.0455 30.9316 7.45454 30.3857 7.31823L29.6579 7.09094C29.1575 6.9091 28.6116 7.22731 28.4297 7.72729L25.1544 18.091L27.7928 18.9546Z" fill="url(#paint0_linear)"/>
<path fill-rule="evenodd" clip-rule="evenodd" d="M14.0427 10.7692H7.45729C7.22868 10.7692 7 10.5328 7 10.2964V5.47287C7 5.18917 7.18288 5 7.45729 5H14.0427C14.3171 5 14.5 5.18911 14.5 5.47287V10.2964C14.5 10.5801 14.3171 10.7692 14.0427 10.7692ZM13.5854 5.94573H7.91465V9.82344H13.5854V5.94573Z" fill="url(#paint1_linear)"/>
<path fill-rule="evenodd" clip-rule="evenodd" d="M7.46294 16.1538H21.5371C21.8149 16.1538 22 15.923 22 15.5769C22 15.2308 21.8148 15 21.5371 15H7.46294C7.18514 15 7 15.2308 7 15.5769C7 15.923 7.18514 16.1538 7.46294 16.1538Z" fill="url(#paint2_linear)"/>
<path fill-rule="evenodd" clip-rule="evenodd" d="M21.4231 19.5769C21.4231 19.2307 21.2444 19 20.9766 19H7.44651C7.17857 19 7 19.2308 7 19.5769C7 19.923 7.17863 20.1538 7.44651 20.1538H21.0212C21.2444 20.1538 21.4231 19.8653 21.4231 19.5769Z" fill="url(#paint3_linear)"/>
<path fill-rule="evenodd" clip-rule="evenodd" d="M21.103 23H14.4412C14.1764 23 14 23.2308 14 23.5769C14 23.923 14.1765 24.1538 14.4412 24.1538H21.0588C21.3236 24.1538 21.5 23.923 21.5 23.5769C21.5 23.2308 21.3236 23 21.103 23Z" fill="url(#paint4_linear)"/>
<defs>
<linearGradient id="paint0_linear" x1="19.4738" y1="-25.9123" x2="-39.2109" y2="8.51708" gradientUnits="userSpaceOnUse">
<stop stop-color="#FF854F"/>
<stop offset="1" stop-color="#F25555"/>
</linearGradient>
<linearGradient id="paint1_linear" x1="11.5642" y1="0.328306" x2="-0.12481" y2="9.24338" gradientUnits="userSpaceOnUse">
<stop stop-color="#FF854F"/>
<stop offset="1" stop-color="#F25555"/>
</linearGradient>
<linearGradient id="paint2_linear" x1="16.1284" y1="14.0657" x2="15.5034" y2="18.8319" gradientUnits="userSpaceOnUse">
<stop stop-color="#FF854F"/>
<stop offset="1" stop-color="#F25555"/>
</linearGradient>
<linearGradient id="paint3_linear" x1="15.7773" y1="18.0657" x2="15.1282" y2="22.8254" gradientUnits="userSpaceOnUse">
<stop stop-color="#FF854F"/>
<stop offset="1" stop-color="#F25555"/>
</linearGradient>
<linearGradient id="paint4_linear" x1="18.5642" y1="22.0657" x2="17.3746" y2="26.6019" gradientUnits="userSpaceOnUse">
<stop stop-color="#FF854F"/>
<stop offset="1" stop-color="#F25555"/>
</linearGradient>
</defs>
</svg>
