<?xml version="1.0" encoding="UTF-8"?>
<svg width="35px" height="36px" viewBox="0 0 35 36" version="1.1" xmlns="http://www.w3.org/2000/svg" xmlns:xlink="http://www.w3.org/1999/xlink">
    <!-- Generator: Sketch 52.3 (67297) - http://www.bohemiancoding.com/sketch -->
    <title>dollar</title>
    <desc>Created with Sketch.</desc>
    <defs>
        <linearGradient x1="114.651673%" y1="10.7188615%" x2="-11.1907394%" y2="92.0489998%" id="linearGradient-1">
            <stop stop-color="#FF854F" offset="0%"></stop>
            <stop stop-color="#F25555" offset="100%"></stop>
        </linearGradient>
    </defs>
    <g id="Page-1" stroke="none" stroke-width="1" fill="none" fill-rule="evenodd">
        <g id="perspectiva_24" transform="translate(-748.000000, -1906.000000)" fill="url(#linearGradient-1)" fill-rule="nonzero">
            <g id="Group-15" transform="translate(741.000000, 1827.000000)">
                <g id="dollar" transform="translate(7.000000, 79.000000)">
                    <path d="M32.3704883,22.2933081 C33.8228516,22.294064 34.9988379,23.4773602 35,24.9371185 C35,25.7870521 34.6143848,26.5901872 33.9284668,27.0654573 C32.8327344,27.8241991 30.5962891,29.40841 28.2053516,31.0127559 C25.8101074,32.6190261 23.2709668,34.2422701 21.5030566,35.1086967 C20.9950781,35.3567773 20.5512891,35.5442464 20.1613672,35.6547488 C19.9517773,35.712955 19.7577734,35.7519194 19.5529004,35.7526754 C19.2897168,35.7510948 18.9444336,35.7094502 18.4810254,35.642173 C18.0215137,35.5745521 17.4603516,35.4790308 16.8330859,35.3646114 C15.5789648,35.1358412 14.0605664,34.832372 12.5913184,34.5292464 C10.4189941,34.0807085 8.35850586,33.6333389 7.43011719,33.4301327 L7.43011719,34.3763436 C7.43011719,35.2412583 6.72615234,35.948872 5.86584961,35.948872 L1.56426758,35.948872 C0.703896484,35.948872 0,35.2411896 0,34.3763436 L0,22.1895403 C0,21.3246256 0.703896484,20.6170118 1.56426758,20.6168744 L5.86578125,20.6168744 C6.72615234,20.6168744 7.43004883,21.3245569 7.43004883,22.1894028 L7.43004883,23.4356469 C8.16251953,23.2351896 9.48814453,22.8782559 10.5267969,22.6329242 C11.0351855,22.5130758 11.4661914,22.4203033 11.7692285,22.3801706 C11.8524902,22.3699313 11.9256348,22.3625095 12.010127,22.3620972 C12.1195703,22.3625095 12.2165723,22.374673 12.3327148,22.3919905 C12.4472852,22.4096517 12.5763477,22.4335664 12.7218164,22.463872 C13.012002,22.5240024 13.3670605,22.6085284 13.7729785,22.7115403 C14.583584,22.9171517 15.5948926,23.1958815 16.6464648,23.495846 C17.6432812,23.7800735 18.6748926,24.0827867 19.6040332,24.3587678 L23.7183789,21.8255284 L23.761377,21.8011327 C24.1050879,21.6273389 24.505127,21.5113389 24.9400293,21.5113389 C25.749541,21.5117512 26.4710742,21.8828412 26.9528027,22.4619479 L28.0274121,21.8211991 L28.0633691,21.8011327 C28.4070801,21.6273389 28.8071191,21.5113389 29.2420215,21.5113389 C30.0835937,21.5121635 30.8301465,21.912391 31.311123,22.530737 C31.6274902,22.3880047 31.9841895,22.2933081 32.3704883,22.2933081 Z M6.25686523,34.3762062 L6.25686523,22.1895403 C6.25686523,21.9765071 6.07776367,21.7964597 5.86584961,21.7964597 L1.56426758,21.7964597 C1.35235352,21.7964597 1.17325195,21.9765071 1.17325195,22.1895403 L1.17325195,34.3762062 C1.17325195,34.5892393 1.35235352,34.7692867 1.56426758,34.7692867 L5.86584961,34.7692867 C6.07776367,34.7692867 6.25686523,34.5892393 6.25686523,34.3762062 Z M33.2632617,26.0939573 C33.6011621,25.862782 33.8264063,25.4311493 33.8283887,24.9369123 C33.8279102,24.5311872 33.6660352,24.1684123 33.4016895,23.9014336 C33.1361133,23.6356919 32.7755859,23.4728934 32.3724023,23.472481 C32.1479785,23.472481 31.9355859,23.5306185 31.7279785,23.6340427 L31.5844922,23.719737 C31.525498,23.7952607 31.4487988,23.8588957 31.3545996,23.8990284 C31.3107813,23.9179265 31.2658008,23.9289218 31.2212305,23.9364123 L26.6243359,26.6772559 C26.3455664,26.8435592 25.985791,26.7511991 25.8203613,26.4713009 C25.6549316,26.1910592 25.7463965,25.8290403 26.0252344,25.6630806 L30.2763672,23.1286043 C30.0124316,22.8597014 29.6483496,22.690237 29.2435938,22.6906493 C29.0191016,22.6906493 28.806709,22.7487867 28.5991016,22.8522109 L24.9481641,25.0289289 C24.6693945,25.1951635 24.3096191,25.102391 24.1441895,24.8224929 C23.9787598,24.5425948 24.0706348,24.1805758 24.3490625,24.0146161 L25.921875,23.0769953 C25.6629297,22.8379171 25.3203809,22.6900995 24.9410547,22.6905118 C24.7173828,22.6909242 24.5061523,22.748718 24.299707,22.8509052 L21.1161426,24.8114289 C21.5079785,24.9297654 21.8509375,25.0343578 22.1230762,25.1173033 C22.6110938,25.2667014 23.090498,25.4734123 23.5152148,25.7635498 C23.9383594,26.0529313 24.312627,26.4330924 24.5452539,26.9240995 C24.6997461,27.2499716 24.7869043,27.6222986 24.7861523,28.018128 C24.785332,29.5914123 23.5171289,30.8663128 21.9525195,30.8667251 L21.9236035,30.8667251 L20.3194824,30.708737 L15.1364746,30.0400877 C14.815459,29.9983744 14.5878223,29.7032204 14.6293164,29.3800284 C14.6707422,29.0569052 14.9648242,28.8289597 15.2863184,28.8701919 L20.4525781,29.5369858 L21.9663965,29.6859716 C22.4203711,29.6816422 22.8271094,29.49809 23.1266602,29.1981256 C23.428125,28.8941754 23.6126953,28.4806161 23.6131055,28.0179218 C23.6122852,27.789564 23.5665527,27.602782 23.4856152,27.4302251 C23.4046777,27.2584929 23.2842285,27.0996801 23.1238574,26.9510379 C22.8047559,26.65341 22.3186523,26.4080782 21.7817578,26.2453483 C20.23,25.7716588 16.3890918,24.6155071 13.9531738,23.9758578 C13.1448926,23.7631682 12.4813281,23.6071043 12.1575098,23.5583815 C12.0738379,23.5453246 12.0124512,23.5414076 12.0104688,23.5418199 C12.0096484,23.5406517 11.9287109,23.5469052 11.8247363,23.5642227 C11.7187793,23.5811967 11.5806934,23.6075166 11.4227148,23.6405024 C11.1055957,23.7070237 10.7063086,23.8004834 10.2835742,23.9054882 C9.43728516,24.1149479 8.4937207,24.3677701 7.87541016,24.53641 C7.69514648,24.585545 7.5450293,24.6267773 7.43039063,24.6586635 L7.43039063,32.2229905 C7.66349609,32.2737062 8.03735352,32.3558957 8.52188477,32.4608318 C9.3559375,32.6417038 10.5006152,32.8877915 11.7433887,33.1484479 C14.2266797,33.6692796 17.1106934,34.2483863 18.6514453,34.4752322 C19.0866895,34.5405166 19.4252734,34.574327 19.5531738,34.5731588 C19.5926172,34.5739834 19.701377,34.5601706 19.8456836,34.5189384 C19.9908105,34.4784621 20.173877,34.4127654 20.3830566,34.3255592 C20.8018945,34.1505972 21.3259375,33.8891848 21.9132813,33.5656493 C23.0891992,32.9185782 24.5231738,32.025763 25.981416,31.0736422 C28.9002246,29.1677512 31.9156934,27.0272488 33.2632617,26.0939573 Z M18,13 C15.2385763,13 13,10.0898509 13,6.5 C13,2.91014913 15.2385763,-1.13686838e-13 18,-1.13686838e-13 C20.7614237,-1.13686838e-13 23,2.91014913 23,6.5 C23,10.0898509 20.7614237,13 18,13 Z M18,12 C20.209139,12 22,9.53756612 22,6.5 C22,3.46243388 20.209139,1 18,1 C15.790861,1 14,3.46243388 14,6.5 C14,9.53756612 15.790861,12 18,12 Z M17,15 L18,15 L18,19 L17,19 L17,15 Z M19,15 L20,15 L20,21 L19,21 L19,15 Z" id="Combined-Shape"></path>
                </g>
            </g>
        </g>
    </g>
</svg>