<svg width="21" height="32" viewBox="0 0 21 32" fill="none" xmlns="http://www.w3.org/2000/svg">
<path fill-rule="evenodd" clip-rule="evenodd" d="M18.1379 11.0325C17.0783 12.5377 15.6077 13.6861 13.885 14.3535C13.2032 14.6177 12.7627 15.2446 12.7627 15.9508V16.0115C12.7627 16.7171 13.2032 17.3439 13.885 17.608C15.6079 18.2759 17.0784 19.4244 18.1379 20.9297C19.2226 22.4709 19.796 24.2806 19.796 26.1633V27.0274H20.4203C20.7093 27.0274 20.9436 27.2585 20.9436 27.5435V31.4459C20.9436 31.7309 20.7093 31.962 20.4203 31.962H0.541322C0.252345 31.962 0.0180664 31.7309 0.0180664 31.4459V27.5435C0.0180664 27.2585 0.252345 27.0274 0.541322 27.0274H1.16609V26.1633C1.16609 24.2806 1.73944 22.4707 2.82397 20.9297C3.88339 19.4243 5.35409 18.2757 7.07707 17.608C7.7589 17.3438 8.19942 16.7171 8.19942 16.0114V15.9507C8.19942 15.2445 7.7589 14.6176 7.07714 14.3535C5.35416 13.6861 3.88346 12.5377 2.82404 11.0324C1.73944 9.49141 1.16616 7.68165 1.16616 5.79881V4.93461H0.541392C0.252415 4.93461 0.0181362 4.70352 0.0181362 4.41848V0.516129C0.0181362 0.231088 0.252415 0 0.541392 0H20.4203C20.7093 0 20.9436 0.231088 20.9436 0.516129V4.41848C20.9436 4.70352 20.7093 4.93461 20.4203 4.93461H19.796V5.79888C19.796 7.68158 19.2226 9.49134 18.1379 11.0325ZM19.897 1.03226H1.06465V3.90235H19.897V1.03226ZM19.897 30.9298H1.06465V28.0597H19.897V30.9298ZM17.2782 21.5183C16.3372 20.1815 15.0316 19.1616 13.5023 18.5687C12.4173 18.1484 11.7162 17.1446 11.7161 16.0115V15.9508C11.7161 14.8172 12.4173 13.8131 13.5024 13.3927C15.0315 12.8003 16.3372 11.7805 17.2781 10.4438C18.2407 9.0763 18.7494 7.47011 18.7494 5.79881V4.93468H2.2126V5.79874C2.2126 7.47018 2.72128 9.07637 3.68365 10.4437C4.62453 11.7805 5.93023 12.8002 7.45967 13.3927C8.54483 13.8131 9.246 14.8172 9.246 15.9507V16.0114C9.246 17.1445 8.54483 18.1483 7.45974 18.5687C5.9303 19.1615 4.62453 20.1814 3.68372 21.5182C2.72135 22.8857 2.21267 24.492 2.21267 26.1633V27.0274H18.7495V26.1633C18.7495 24.4921 18.2407 22.8858 17.2782 21.5183Z" fill="url(#paint0_linear)"/>
<path fill-rule="evenodd" clip-rule="evenodd" d="M10.481 20.3169C10.6819 20.3169 10.865 20.4303 10.9523 20.6087C11.3836 21.4905 12.1397 22.177 13.0813 22.5416C14.3981 23.052 15.5222 23.9302 16.3325 25.0812C16.4435 25.239 16.4566 25.4446 16.3663 25.6148C16.2761 25.785 16.0975 25.8917 15.9027 25.8917H5.05942C4.86463 25.8917 4.68602 25.785 4.59574 25.6148C4.50546 25.4446 4.51851 25.239 4.62958 25.0812C5.43986 23.9302 6.56402 23.0521 7.88053 22.5417C8.82239 22.1769 9.57853 21.4905 10.0098 20.6087C10.097 20.4303 10.2802 20.3169 10.481 20.3169ZM8.26321 23.5025C7.47323 23.8087 6.76425 24.2705 6.17242 24.8595H14.7897C14.1978 24.2705 13.4889 23.8087 12.6987 23.5024C11.8013 23.1548 11.0368 22.5742 10.481 21.8294C9.92528 22.5742 9.16077 23.1548 8.26321 23.5025Z" fill="url(#paint1_linear)"/>
<path fill-rule="evenodd" clip-rule="evenodd" d="M15.882 9.15918C16.0295 9.3231 16.0372 9.55483 15.9135 9.72466C15.1639 10.7538 14.1239 11.539 12.9058 11.9953C12.2253 12.2501 11.65 12.6806 11.2406 13.2326C11.0712 13.4612 10.9841 13.736 10.9841 14.0159V15.5385C10.9841 15.7981 10.7592 16.0077 10.4851 15.9998C10.2201 15.9922 10.0159 15.7719 10.0159 15.5192V14.0159C10.0159 13.736 9.92883 13.4611 9.7594 13.2326C9.35005 12.6806 8.77481 12.2501 8.0943 11.9954C6.87613 11.539 5.8361 10.7538 5.08646 9.72466C4.96279 9.55489 4.97047 9.32316 5.11802 9.15918C5.21207 9.0547 5.35368 9 5.49813 9H15.5019C15.6463 9 15.7879 9.0547 15.882 9.15918ZM8.44122 11.3436C9.27436 11.6877 9.98411 12.2626 10.5001 13C11.016 12.2626 11.7258 11.6878 12.559 11.3435C13.2924 11.0403 13.9506 10.5831 14.5 10H6.5C7.04951 10.5831 7.7077 11.0403 8.44122 11.3436Z" fill="url(#paint2_linear)"/>
<defs>
<linearGradient id="paint0_linear" x1="11.2392" y1="-27.7927" x2="-37.4493" y2="-7.87616" gradientUnits="userSpaceOnUse">
<stop stop-color="#FF854F"/>
<stop offset="1" stop-color="#F25555"/>
</linearGradient>
<linearGradient id="paint1_linear" x1="10.9119" y1="15.4693" x2="-0.722365" y2="30.9728" gradientUnits="userSpaceOnUse">
<stop stop-color="#FF854F"/>
<stop offset="1" stop-color="#F25555"/>
</linearGradient>
<linearGradient id="paint2_linear" x1="10.8987" y1="2.91313" x2="-4.3136" y2="17.8491" gradientUnits="userSpaceOnUse">
<stop stop-color="#FF854F"/>
<stop offset="1" stop-color="#F25555"/>
</linearGradient>
</defs>
</svg>
