<?xml version="1.0" encoding="UTF-8"?>
<svg width="35px" height="30px" viewBox="0 0 35 30" version="1.1" xmlns="http://www.w3.org/2000/svg" xmlns:xlink="http://www.w3.org/1999/xlink">
    <!-- Generator: Sketch 52.3 (67297) - http://www.bohemiancoding.com/sketch -->
    <title>key</title>
    <desc>Created with Sketch.</desc>
    <defs>
        <linearGradient x1="114.651673%" y1="10.7188615%" x2="-32.0381123%" y2="112.311987%" id="linearGradient-1">
            <stop stop-color="#FF854F" offset="0%"></stop>
            <stop stop-color="#F25555" offset="100%"></stop>
        </linearGradient>
    </defs>
    <g id="Page-1" stroke="none" stroke-width="1" fill="none" fill-rule="evenodd">
        <g id="perspectiva_24" transform="translate(-969.000000, -1996.000000)" fill="url(#linearGradient-1)" fill-rule="nonzero">
            <g id="Group-15" transform="translate(741.000000, 1827.000000)">
                <g id="key" transform="translate(228.000000, 169.000000)">
                    <path d="M22.5767517,3.76881454 L24.1663742,9.74027023 L18.5795975,15.3636575 L14.4088745,14.2388188 L4.38861849,24.3247384 L0.927391035,23.3912701 L2.20268248e-13,19.9073609 L2.35626221,17.5356579 L3.71917725,17.3257418 L3.95977019,15.7461296 L5.52936556,15.50396 L5.77022551,13.924079 L7.33955387,13.6816406 L7.54837036,12.3095256 L10.020256,9.82144135 L8.90274048,5.62365612 L14.4897843,-1.04805054e-13 L20.0287629,1.49387188 L19.7633362,2.49104071 L14.7960663,1.15117906 L10.0464249,5.93194528 L11.0517883,9.70855431 L12.7087021,11.376326 L11.9837189,12.1063288 L10.5919647,10.7054544 L8.51127621,12.8000466 L8.23917391,14.587156 L6.66957854,14.8293255 L6.42871858,16.4094753 L4.85939029,16.6513761 L4.61879729,18.2312572 L2.84358977,18.5048739 L1.1436844,20.2159189 L1.61151888,21.972925 L9.46456909,14.0681443 L10.1898193,14.7981472 L2.33650211,22.7026591 L4.08206941,23.1735593 L14.1025925,13.0876397 L18.2730484,14.2124785 L23.0226898,9.43171232 L21.5863419,4.0359805 L22.5767517,3.76881454 Z M19.3961716,3.56991826 C20.4349137,2.4128261 21.9366837,1.69411197 23.5874557,1.69411197 C26.6991424,1.69411197 29.2305755,4.24213376 29.2305755,7.37394282 C29.2305755,7.76259674 29.1910553,8.14614392 29.114418,8.51974624 C29.6495438,8.93715956 29.994812,9.5902917 29.994812,10.3229824 C29.994812,11.5805978 28.9782333,12.6038381 27.7288055,12.6038381 C26.4796448,12.6038381 25.4630661,11.5805978 25.4630661,10.3229824 C25.4630661,9.06563573 26.4796448,8.04239532 27.7288055,8.04239532 C27.8732681,8.04239532 28.0142594,8.05610305 28.1512451,8.08217463 C28.1867599,7.84968103 28.2051849,7.61288704 28.2051849,7.37394282 C28.2051849,4.81113819 26.1335754,2.72622206 23.5874557,2.72622206 C22.2891617,2.72622206 21.1035538,3.26942374 20.2586746,4.15182413 C20.5411911,4.48591596 20.7118225,4.91838089 20.7118225,5.39035624 C20.7118225,6.44558126 19.8591995,7.30379161 18.8111115,7.30379161 C17.7630234,7.30379161 16.9101334,6.44558126 16.9101334,5.39035624 C16.9101334,4.33539991 17.7630234,3.47718963 18.8111115,3.47718963 C19.0151214,3.47718963 19.2116546,3.50971183 19.3961716,3.56991826 Z M27.7288055,9.07450541 C27.0449447,9.07450541 26.4884567,9.63464023 26.4884567,10.3229824 C26.4884567,10.5232225 26.5354538,10.7124427 26.6190338,10.8801606 C27.1800614,10.387758 27.6105118,9.76983585 27.8804779,9.08391268 C27.8308105,9.07773083 27.780075,9.07450541 27.7288055,9.07450541 Z M28.9691544,10.3232511 C28.9691544,10.0689866 28.8933182,9.83246133 28.7632751,9.63517775 C28.4551239,10.3490539 28.0025101,10.9973481 27.4289322,11.5346366 C27.5250626,11.5588267 27.6254654,11.5717281 27.7288055,11.5717281 C28.4129333,11.5717281 28.9691544,11.0115933 28.9691544,10.3232511 Z M18.7091064,4.51521289 C18.2743835,4.5662808 17.935791,4.9393456 17.935791,5.390625 C17.935791,5.59731578 18.0068206,5.78787991 18.1259155,5.93839596 C18.2567596,5.43201688 18.454628,4.9543972 18.7091064,4.51521289 Z M19.6864319,5.39035624 C19.6864319,5.2578483 19.6570587,5.13179112 19.604721,5.01863532 C19.3889618,5.38766842 19.2220688,5.79003014 19.1136551,6.21738819 C19.4477082,6.09294365 19.6864319,5.76933413 19.6864319,5.39035624 Z M24.5,24.5 L24.5,15.5 L31.5,15.5 L31.5,24.5 L24.5,24.5 Z M25.6636136,16.6690478 L25.6636136,23.3309522 L30.3363864,23.3309522 L30.3363864,16.6690478 L25.6636136,16.6690478 Z M24.2641068,7.53198468 L26.796341,5.61720544 L27.4121094,6.44235592 L24.8798752,8.35713516 L24.2641068,7.53198468 Z M30.4097747,6.9390589 L35,10.4103354 L35,29.9943557 L20.4576111,29.9943557 L20.4576111,14.1735056 L21.4830017,14.1735056 L21.4830017,28.9622456 L33.9746094,28.9622456 L33.9746094,10.9258529 L29.7937393,7.76447821 L30.4097747,6.9390589 Z" id="Combined-Shape"></path>
                </g>
            </g>
        </g>
    </g>
</svg>