<svg width="32" height="32" viewBox="0 0 32 32" fill="none" xmlns="http://www.w3.org/2000/svg">
<path fill-rule="evenodd" clip-rule="evenodd" d="M3.58976 31.9153C3.30648 31.9153 3.07694 31.6857 3.07694 31.4025V15.7785H0.512839C0.303404 15.7785 0.115096 15.6511 0.036942 15.457C-0.0410067 15.2628 0.00678816 15.0404 0.157763 14.8956L15.5424 0.142769C15.7409 -0.0475897 16.0538 -0.0475897 16.2523 0.142769L31.6369 14.8956C31.7881 15.0404 31.8359 15.2628 31.7578 15.457C31.6796 15.6513 31.4913 15.7785 31.2819 15.7785H28.7178V31.4025C28.718 31.6857 28.4884 31.9153 28.2051 31.9153H3.58976ZM27.6923 30.8896V15.2656C27.6923 14.9824 27.9219 14.7528 28.2051 14.7528H30.0064L15.8975 1.22338L1.78853 14.7528H3.58976C3.87304 14.7528 4.10258 14.9824 4.10258 15.2656V30.8896H27.6923ZM10.4051 26.9122C10.4985 26.9838 10.6082 27.0183 10.7171 27.0183C10.8712 27.0183 11.0234 26.9491 11.1241 26.8178L20.6927 14.3563C20.8652 14.1317 20.823 13.8098 20.5984 13.6373C20.3738 13.4646 20.0517 13.5071 19.8794 13.7317L10.3108 26.1932C10.1383 26.4178 10.1805 26.7397 10.4051 26.9122ZM19.5965 26.8131C17.7869 26.8131 16.3145 25.3407 16.3145 23.5311C16.3145 21.7214 17.7869 20.249 19.5965 20.249C21.4062 20.249 22.8786 21.7214 22.8786 23.5311C22.8786 25.3407 21.4064 26.8131 19.5965 26.8131ZM17.3401 23.5311C17.3401 22.287 18.3524 21.2747 19.5965 21.2747C20.8408 21.2747 21.8529 22.287 21.8529 23.5311C21.8529 24.7752 20.8406 25.7875 19.5965 25.7875C18.3524 25.7875 17.3401 24.7752 17.3401 23.5311ZM11.9038 19.8954C10.0942 19.8954 8.62176 18.423 8.62176 16.6133C8.62176 14.8037 10.0942 13.3313 11.9038 13.3313C13.7135 13.3313 15.1859 14.8037 15.1859 16.6133C15.1859 18.423 13.7135 19.8954 11.9038 19.8954ZM9.6474 16.6133C9.6474 15.3692 10.6597 14.3569 11.9038 14.3569C13.1479 14.3569 14.1602 15.3692 14.1602 16.6133C14.1602 17.8574 13.1479 18.8697 11.9038 18.8697C10.6597 18.8697 9.6474 17.8574 9.6474 16.6133Z" fill="url(#paint0_linear)"/>
<defs>
<linearGradient id="paint0_linear" x1="23.5239" y1="-16.6605" x2="-16.5765" y2="9.15798" gradientUnits="userSpaceOnUse">
<stop stop-color="#FF854F"/>
<stop offset="1" stop-color="#F25555"/>
</linearGradient>
</defs>
</svg>
