<svg width="30" height="30" viewBox="0 0 30 30" fill="none" xmlns="http://www.w3.org/2000/svg">
<path fill-rule="evenodd" clip-rule="evenodd" d="M28.4187 13.9701H29.8662V21.3081H28.4187V27.1112C28.4187 28.698 27.1201 29.9889 25.5238 29.9889H2.89495C1.29865 29.9889 0 28.698 0 27.1112V7.35125C0 5.76448 1.29865 4.47358 2.89495 4.47358H11.4953L19.1948 0.217522C19.4524 0.075403 19.7442 0 20.0384 0C20.6695 0 21.2514 0.340119 21.5571 0.88809L23.5633 4.47367H25.5238C27.1201 4.47367 28.4187 5.76457 28.4187 7.35134V13.9701ZM27.2416 7.15961C27.1438 6.29803 26.4154 5.62469 25.5238 5.62469H24.2077L25.0658 7.15961H27.2416ZM19.7581 1.22355C20.0296 1.07221 20.395 1.17806 20.545 1.4469L23.741 7.15907H9.01955L19.7581 1.22355ZM25.5237 28.8379C26.4814 28.8379 27.2607 28.0632 27.2607 27.1112V21.3087H23.0266C21.0604 21.3087 19.46 19.718 19.46 17.7634V17.5159C19.46 15.5614 21.0603 13.9706 23.0266 13.9706H27.2607V8.31081H25.7096H4.55378H3.25685C2.93667 8.31081 2.67784 8.05299 2.67784 7.73525C2.67784 7.41752 2.93667 7.1597 3.25685 7.1597H6.6364L9.41324 5.62469H2.89495C1.9373 5.62469 1.15793 6.3994 1.15793 7.35134V27.1112C1.15793 28.0632 1.9373 28.8379 2.89495 28.8379H25.5237ZM28.7082 20.157H28.4187H23.0266C21.6984 20.157 20.6179 19.0831 20.6179 17.7628V17.5153C20.6179 16.195 21.6983 15.121 23.0266 15.121H28.4187H28.7082V20.157ZM23.5216 18.957C24.2279 18.957 24.8 18.3885 24.8 17.6863C24.8 16.9847 24.228 16.4155 23.5216 16.4156C22.8153 16.4156 22.2432 16.9842 22.2432 17.6863C22.2432 18.3884 22.8152 18.957 23.5216 18.957Z" fill="url(#paint0_linear)"/>
<defs>
<linearGradient id="paint0_linear" x1="19.0711" y1="-18.7809" x2="-24.8558" y2="11.5172" gradientUnits="userSpaceOnUse">
<stop stop-color="#FF854F"/>
<stop offset="1" stop-color="#F25555"/>
</linearGradient>
</defs>
</svg>
